# xmcd CD database file
#
# Track frame offsets:
#	150
#	112750
#	129330
#
# Disc length: 2467 seconds
#
# Revision: 1
# Processed by: cddbd v1.5.1PL2 Copyright (c) Steve Scherf et al.
# Submitted via: CDex 1.60beta1
#
DISCID=1909a103
DTITLE=Ornette Coleman - An Evening With Ornette Coleman Vol 1
DYEAR=1965
DGENRE=Jazz
TTITLE0=Sounds And Forms For Wind Quintet
TTITLE1=Sadness
TTITLE2=Clergymans Dream
EXTD=YEAR: 1965
EXTT0=
EXTT1=
EXTT2=
PLAYORDER=
